:SAMPLES-PER-SECOND 24
:FULLY-SPECIFIED
:DEGREES
374
root  -3.16405 41.1013 31.6287 105.732 35.777 107.103
RightUpLeg  -3.50701 -15.3075 -50.4988
RightLeg  18.3167 -12.0421 -5.45271
RightFoot  -4.69775 0.352151 -6.60183
RightToes  -1.74623e-010 0 -2.59999e-017
Spine  20.8326 4.94642 9.66695
Spine1  14.6466 19.0763 -35.1855
HEad  7.89077 31.079 -22.9723
LeftShoulder1  2.3658 -3.37435 -28.3302
LeftArm  -31.6961 22.8109 -12.6192
LeftForeArm  9.41843 -61.4153 -20.3359
LeftHand  -0.721246 2.28457 26.7123
RightShoulder  1.45208 4.1569 11.8809
RightArm  25.7283 61.5074 72.6951
RightForeArm  51.9583 76.3117 45.1701
RightHand  -0.459344 5.16328 -5.35255
LeftUpLeg  -72.5822 40.0252 11.8955
LeftLeg  38.8481 -6.63509 -5.3202
LeftFoot  25.4277 5.32643 -16.4211
LeftToes  -6.27559e-011 -2.10356e-011 8.24929e-012
375
root  -2.99307 41.1877 28.5845 94.2591 41.5034 99.6299
RightUpLeg  -3.42423 -14.9761 -51.7914
RightLeg  18.1665 -3.93023 -1.86775
RightFoot  -3.75374 0.297002 -4.79618
RightToes  -1.74623e-010 0 -2.59999e-017
Spine  19.5486 6.00773 13.3845
Spine1  13.8062 17.8528 -31.3343
HEad  10.5914 22.0901 -17.8055
LeftShoulder1  2.21761 -3.15091 -27.2212
LeftArm  -31.862 27.7628 -10.6306
LeftForeArm  18.5909 -67.6198 -26.8335
LeftHand  -0.551461 2.79221 24.4066
RightShoulder  1.993 4.76119 17.5693
RightArm  7.88021 55.5553 50.1599
RightForeArm  29.3818 69.8937 29.7583
RightHand  -0.906955 6.02907 -9.51709
LeftUpLeg  -71.1068 31.8277 9.54445
LeftLeg  64.005 -4.85343 -9.95652
LeftFoot  25.4072 4.83545 -14.9865
LeftToes  -6.27559e-011 -2.10356e-011 8.24929e-012
376
root  -2.81894 40.973 26.7001 86.1486 46.5493 93.1143
RightUpLeg  -5.27553 -14.8592 -50.1388
RightLeg  20.9456 3.03389 1.0679
RightFoot  -4.68961 0.0680081 -1.75543
RightToes  -1.74623e-010 0 -2.59999e-017
Spine  16.8021 5.56244 14.9592
Spine1  12.1757 16.1209 -29.3351
HEad  11.5459 6.37478 -11.2831
LeftShoulder1  1.90127 -2.79058 -23.9653
LeftArm  -32.1338 30.547 -7.16922
LeftForeArm  32.175 -73.272 -37.5997
LeftHand  -0.287546 3.97269 23.2324
RightShoulder  2.29654 4.79667 21.4032
RightArm  -0.253023 45.3655 33.4403
RightForeArm  19.3874 55.1612 14.8307
RightHand  -1.27175 5.44073 -13.9088
LeftUpLeg  -67.5433 25.3087 -2.88272
LeftLeg  74.4117 -3.86657 -14.7398
LeftFoot  14.9898 5.33177 -23.3679
LeftToes  -6.27559e-011 -2.10356e-011 8.24929e-012
377
root  -2.39279 40.4376 24.6692 73.1821 51.9531 80.9838
RightUpLeg  -9.36801 -15.6119 -46.0989
RightLeg  24.6684 11.6325 5.59847
RightFoot  -5.09482 -0.00843512 -0.488514
RightToes  -1.74623e-010 0 -2.59999e-017
Spine  14.6743 4.87342 17.4012
Spine1  11.7293 14.5686 -26.4963
HEad  8.34549 -13.5523 -5.70332
LeftShoulder1  1.56415 -2.42153 -19.9305
LeftArm  -34.93 29.6699 -6.97632
LeftForeArm  59.5334 -78.4415 -62.7158
LeftHand  -0.206008 4.30203 21.5097
RightShoulder  2.28394 4.48864 22.3647
RightArm  1.15587 35.8405 19.2779
RightForeArm  18.3528 38.7656 7.89785
RightHand  -1.4617 5.38134 -15.9453
LeftUpLeg  -56.8106 21.7035 -10.9044
LeftLeg  76.0905 -6.21344 -26.0546
LeftFoot  4.21156 4.41214 -31.86
LeftToes  -6.27559e-011 -2.10356e-011 8.24929e-012
378
root  -1.72377 39.3613 22.4406 51.8853 54.5054 60.2139
RightUpLeg  -16.4986 -10.7637 -39.9922
RightLeg  31.5976 13.6995 8.71233
RightFoot  -8.1569 -0.0500345 -0.18894
RightToes  -1.74623e-010 0 -2.59999e-017
Spine  15.5625 3.98561 19.495
Spine1  10.9444 12.6532 -21.7567
HEad  0.78544 -33.4053 1.77106
LeftShoulder1  1.27793 -1.99263 -16.5283
LeftArm  -35.3671 24.0845 -6.18135
LeftForeArm  87.7867 -79.8908 -87.9865
LeftHand  -0.0397194 5.19859 18.6667
RightShoulder  2.15149 4.0812 22.1423
RightArm  0.144213 22.499 6.63195
RightForeArm  11.2841 30.9454 6.14807
RightHand  -1.62132 5.59531 -17.3103
LeftUpLeg  -43.9942 16.6936 -12.1524
LeftLeg  72.7902 -9.83046 -31.4143
LeftFoot  -2.56186 2.3358 -29.6123
LeftToes  -6.27559e-011 -2.10356e-011 8.24929e-012
379
root  -0.989114 37.9974 20.4754 33.3048 50.2276 40.1093
RightUpLeg  -26.3259 -1.15285 -35.9802
RightLeg  40.3246 13.91 12.1971
RightFoot  -10.7182 -0.0946509 2.97395
RightToes  -1.74623e-010 0 -2.59999e-017
Spine  15.9224 2.94515 16.4158
Spine1  10.1761 9.64067 -15.9886
HEad  -10.2158 -48.1198 13.8895
LeftShoulder1  1.03216 -1.67261 -12.9206
LeftArm  -32.8851 17.8667 -5.12129
LeftForeArm  98.8647 -80.0029 -95.6834
LeftHand  0.0419145 5.79432 15.7616
RightShoulder  1.98741 3.7196 21.2333
RightArm  -13.3601 2.74212 -1.49098
RightForeArm  4.20895 34.3748 7.47446
RightHand  -1.62272 5.36754 -17.6751
LeftUpLeg  -35.3177 6.24037 -12.6596
LeftLeg  68.4166 -11.724 -29.144
LeftFoot  -7.51789 0.954937 -27.1329
LeftToes  -6.27559e-011 -2.10356e-011 8.24929e-012
380
root  -0.0518114 36.5945 18.5729 19.7282 37.8481 23.4959
RightUpLeg  -38.76 6.22485 -32.1432
RightLeg  45.6599 20.3123 20.4882
RightFoot  -8.12623 -0.182693 4.62725
RightToes  -1.74623e-010 0 -2.59999e-017
Spine  15.3215 0.997574 9.45123
Spine1  11.3534 5.15993 -9.73805
HEad  -20.623 -51.5071 24.6345
LeftShoulder1  1.02975 -2.1238 -11.1274
LeftArm  -29.3766 19.6808 -7.55039
LeftForeArm  107.456 -79.8571 -104.536
LeftHand  0.0647215 6.1351 12.8161
RightShoulder  1.81621 3.44997 19.7499
RightArm  -27.6573 -14.3077 -4.14866
RightForeArm  1.22728 42.8083 10.3186
RightHand  -1.55665 4.90859 -17.7053
LeftUpLeg  -29.8878 -4.61103 -12.3568
LeftLeg  65.9342 -12.2108 -26.9397
LeftFoot  -9.45411 0.431704 -24.0987
LeftToes  -6.27559e-011 -2.10356e-011 8.24929e-012
381
root  0.966921 36.0906 16.2818 10.1471 16.4076 8.45306
RightUpLeg  -47.2668 13.3342 -22.9217
RightLeg  37.1979 25.4354 18.8366
RightFoot  -5.97657 -0.524649 9.95433
RightToes  -1.74623e-010 0 -2.59999e-017
Spine  18.9532 -0.888705 2.50355
Spine1  13.5898 -0.0792807 -1.39706
HEad  -26.1711 -47.4029 29.6879
LeftShoulder1  1.46702 -3.36701 -14.4294
LeftArm  -24.2131 23.7942 -12.3406
LeftForeArm  63.8019 -78.8036 -62.9226
LeftHand  0.0273838 5.77563 13.9263
RightShoulder  2.01349 3.74216 21.5463
RightArm  -34.6986 -21.4315 -3.22613
RightForeArm  1.96065 49.4577 13.0055
RightHand  -1.42315 4.08651 -17.5754
LeftUpLeg  -25.1762 -6.6318 -8.81245
LeftLeg  61.7044 -12.8949 -23.7075
LeftFoot  -11.7383 0.0387783 -7.70201
LeftToes  -6.27559e-011 -2.10356e-011 8.24929e-012
382
root  1.8945 36.3505 13.9526 9.00287 -8.4006 -2.63385
RightUpLeg  -43.7149 6.43633 -1.834
RightLeg  14.8352 16.7722 4.67989
RightFoot  -9.46714 -0.354284 17.5703
RightToes  -1.74623e-010 0 -2.59999e-017
Spine  21.7602 -0.984379 -9.22904
Spine1  15.0651 -5.33262 6.84993
HEad  -26.2697 -44.1468 32.7244
LeftShoulder1  2.06568 -4.34504 -19.8561
LeftArm  -14.0146 18.3622 -13.9074
LeftForeArm  22.5987 -64.7851 -22.3366
LeftHand  -0.381278 2.37971 14.5157
RightShoulder  2.69588 4.79439 26.4819
RightArm  -34.406 -23.8486 0.287039
RightForeArm  5.05788 54.7909 15.6726
RightHand  -1.32455 3.7907 -16.8978
LeftUpLeg  -22.8652 0.894556 -4.30977
LeftLeg  53.5351 -9.16047 -12.5977
LeftFoot  -19.5294 0.610953 6.88486
LeftToes  -6.27559e-011 -2.10356e-011 8.24929e-012
383
root  2.94129 36.3364 12.0319 12.8472 -29.3743 -10.7105
RightUpLeg  -44.8478 -4.95194 12.5817
RightLeg  8.15105 -8.23423 7.77773
RightFoot  -8.08383 -0.209497 5.0837
RightToes  -1.74623e-010 0 -2.59999e-017
Spine  21.3003 -2.00718 -22.5439
Spine1  13.3172 -10.3819 13.114
HEad  -23.9705 -45.2 34.209
LeftShoulder1  2.24842 -4.48137 -21.8335
LeftArm  -8.30049 5.60805 -14.7206
LeftForeArm  17.6395 -57.8981 -16.462
LeftHand  -0.426008 1.47119 12.5515
RightShoulder  2.91305 4.97303 28.4304
RightArm  -32.4651 -28.1293 5.55342
RightForeArm  8.64856 59.7301 18.9103
RightHand  -1.20029 3.27646 -16.2264
LeftUpLeg  -24.7014 13.5615 -2.51692
LeftLeg  48.9656 0.445158 1.12104
LeftFoot  -26.719 1.34342 8.80769
LeftToes  -6.27559e-011 -2.10356e-011 8.24929e-012
384
root  4.24672 36.2034 10.5148 18.3964 -44.6684 -21.4955
RightUpLeg  -57.6492 -18.6909 27.5899
RightLeg  36.2268 7.93526 4.19285
RightFoot  -8.31217 -0.254626 7.92842
RightToes  -1.74623e-010 0 -2.59999e-017
Spine  22.4614 -3.87442 -27.9512
Spine1  10.5005 -13.9316 17.3325
HEad  -21.7411 -46.6434 34.2006
LeftShoulder1  1.74254 -4.03015 -16.3639
LeftArm  -18.1524 -15.978 -21.4616
LeftForeArm  21.233 -58.0093 -16.2802
LeftHand  -0.223739 3.60826 14.2398
RightShoulder  2.92107 4.77718 29.3677
RightArm  -36.4163 -33.776 9.55265
RightForeArm  12.0072 62.7535 21.3902
RightHand  -0.961708 2.28435 -14.6641
LeftUpLeg  -26.4922 26.7889 1.97699
LeftLeg  49.9966 4.13502 5.73753
LeftFoot  -27.697 1.38427 8.46977
LeftToes  -6.27559e-011 -2.10356e-011 8.24929e-012
385
root  4.98394 36.6213 9.79372 30.1874 -55.4272 -39.2378
RightUpLeg  -63.8943 -17.483 16.8171
RightLeg  63.908 5.64344 12.7217
RightFoot  -11.34 -0.0824695 8.23288
RightToes  -1.74623e-010 0 -2.59999e-017
Spine  22.8455 -5.37578 -27.9779
Spine1  8.89553 -15.8993 20.7818
HEad  -14.8282 -44.3969 29.2714
LeftShoulder1  1.02117 -2.84781 -8.55134
LeftArm  -26.4084 -42.8642 -28.979
LeftForeArm  23.4604 -59.2198 -16.9445
LeftHand  -0.277634 3.57643 17.1371
RightShoulder  2.69917 4.38858 28.2687
RightArm  -39.8743 -35.6429 10.2176
RightForeArm  14.5188 63.2688 21.648
RightHand  -0.758688 1.77431 -12.4342
LeftUpLeg  -21.4264 37.3302 12.6008
LeftLeg  49.4924 3.76075 5.29803
LeftFoot  -26.7352 0.930615 5.80502
LeftToes  -6.27559e-011 -2.10356e-011 8.24929e-012
386
root  4.70042 38.1943 9.50743 54.3888 -62.7045 -68.178
RightUpLeg  -66.6142 -22.3486 7.77797
RightLeg  78.1353 2.55007 12.8993
RightFoot  -17.5296 0.166648 5.27878
RightToes  -1.74623e-010 0 -2.59999e-017
Spine  20.0398 -7.01542 -26.8887
Spine1  7.05602 -17.249 25.1651
HEad  -1.48304 -38.3561 18.1523
LeftShoulder1  0.661038 -2.05601 -3.90739
LeftArm  -22.1336 -62.7486 -37.6059
LeftForeArm  24.0339 -60.8448 -18.1892
LeftHand  -0.4276 2.56508 17.3791
RightShoulder  2.15536 3.55641 24.4405
RightArm  -36.0587 -30.7208 6.20617
RightForeArm  16.6321 62.3666 20.458
RightHand  -0.694644 1.94813 -11.1516
LeftUpLeg  -7.90747 42.08 27.0553
LeftLeg  42.1899 10.1707 10.1551
LeftFoot  -21.9189 -0.0363768 -1.8136
LeftToes  -6.27559e-011 -2.10356e-011 8.24929e-012
387
root  3.63276 40.5834 9.14337 88.6859 -63.7054 -107.106
RightUpLeg  -66.9504 -27.6867 -3.66931
RightLeg  76.0984 1.56369 6.12165
RightFoot  -11.6484 -0.0182657 3.83199
RightToes  -1.74623e-010 0 -2.59999e-017
Spine  14.9039 -9.71781 -23.6713
Spine1  6.55865 -18.4074 25.6211
HEad  13.8014 -27.516 6.73601
LeftShoulder1  0.626513 -2.6134 -2.03368
LeftArm  -8.85113 -68.9455 -53.3404
LeftForeArm  23.9856 -60.3781 -17.807
LeftHand  -0.417052 2.40287 16.0315
RightShoulder  2.09081 3.57523 23.3883
RightArm  -29.8588 -21.5096 -0.0259885
RightForeArm  18.345 61.7348 19.6389
RightHand  -0.567934 1.84698 -9.25867
LeftUpLeg  10.2998 34.1617 36.6038
LeftLeg  28.9361 24.0657 13.4378
LeftFoot  -5.85142 0.378287 -6.64057
LeftToes  -6.27559e-011 -2.10356e-011 8.24929e-012
388
root  2.96653 43.3755 9.50044 119.021 -56.2249 -141.948
RightUpLeg  -67.3669 -31.4152 -10.5255
RightLeg  52.5906 4.94476 4.65364
RightFoot  10.2236 -1.45225 6.99117
RightToes  -1.74623e-010 0 -2.59999e-017
Spine  11.7562 -11.559 -16.6252
Spine1  8.90331 -19.9018 23.4002
HEad  24.6217 -12.1099 -0.191117
LeftShoulder1  0.833911 -3.29978 -4.31516
LeftArm  -6.92319 -64.3896 -56.2409
LeftForeArm  21.7416 -59.1194 -17.0477
LeftHand  -0.381777 2.60028 15.6809
RightShoulder  2.12712 3.70187 23.3684
RightArm  -25.6653 -10.1523 -3.4419
RightForeArm  17.4397 59.0995 17.5236
RightHand  -0.41139 2.21251 -6.50252
LeftUpLeg  22.3589 17.4939 29.9679
LeftLeg  19.2114 28.0519 10.6569
LeftFoot  22.0153 2.73775 -9.58296
LeftToes  -6.27559e-011 -2.10356e-011 8.24929e-012
